<?xml version="1.0" encoding="UTF-8" standalone="no"?>
<!DOCTYPE svg PUBLIC "-//W3C//DTD SVG 1.1//EN"
 "http://www.w3.org/Graphics/SVG/1.1/DTD/svg11.dtd">
<!-- Generated by graphviz version 2.36.0 (20140111.2315)
 -->
<!-- Title: G Pages: 1 -->
<svg width="584pt" height="260pt"
 viewBox="0.00 0.00 584.00 260.00" xmlns="http://www.w3.org/2000/svg" xmlns:xlink="http://www.w3.org/1999/xlink">
<g id="graph0" class="graph" transform="scale(1 1) rotate(0) translate(4 256)">
<title>G</title>
<polygon fill="white" stroke="none" points="-4,4 -4,-256 580,-256 580,4 -4,4"/>
<!-- 8 -->
<g id="node1" class="node"><title>8</title>
<polygon fill="none" stroke="red" points="36,-36 0,-36 0,-0 36,-0 36,-36"/>
<text text-anchor="middle" x="18" y="-14.3" font-family="Times,serif" font-size="14.00">8</text>
</g>
<!-- 11 -->
<g id="node2" class="node"><title>11</title>
<polygon fill="none" stroke="red" points="198,-36 162,-36 162,-0 198,-0 198,-36"/>
<text text-anchor="middle" x="180" y="-14.3" font-family="Times,serif" font-size="14.00">11</text>
</g>
<!-- 15 -->
<g id="node3" class="node"><title>15</title>
<polygon fill="none" stroke="red" points="414,-36 378,-36 378,-0 414,-0 414,-36"/>
<text text-anchor="middle" x="396" y="-14.3" font-family="Times,serif" font-size="14.00">15</text>
</g>
<!-- 16 -->
<g id="node4" class="node"><title>16</title>
<polygon fill="none" stroke="red" points="468,-36 432,-36 432,-0 468,-0 468,-36"/>
<text text-anchor="middle" x="450" y="-14.3" font-family="Times,serif" font-size="14.00">16</text>
</g>
<!-- 17 -->
<g id="node5" class="node"><title>17</title>
<polygon fill="none" stroke="red" points="522,-36 486,-36 486,-0 522,-0 522,-36"/>
<text text-anchor="middle" x="504" y="-14.3" font-family="Times,serif" font-size="14.00">17</text>
</g>
<!-- 18 -->
<g id="node6" class="node"><title>18</title>
<polygon fill="none" stroke="red" points="576,-36 540,-36 540,-0 576,-0 576,-36"/>
<text text-anchor="middle" x="558" y="-14.3" font-family="Times,serif" font-size="14.00">18</text>
</g>
<!-- 9 -->
<g id="node7" class="node"><title>9</title>
<polygon fill="none" stroke="blue" points="90,-36 54,-36 54,-0 90,-0 90,-36"/>
<text text-anchor="middle" x="72" y="-14.3" font-family="Times,serif" font-size="14.00">9</text>
</g>
<!-- 10 -->
<g id="node8" class="node"><title>10</title>
<polygon fill="none" stroke="blue" points="144,-36 108,-36 108,-0 144,-0 144,-36"/>
<text text-anchor="middle" x="126" y="-14.3" font-family="Times,serif" font-size="14.00">10</text>
</g>
<!-- 12 -->
<g id="node9" class="node"><title>12</title>
<polygon fill="none" stroke="blue" points="252,-36 216,-36 216,-0 252,-0 252,-36"/>
<text text-anchor="middle" x="234" y="-14.3" font-family="Times,serif" font-size="14.00">12</text>
</g>
<!-- 13 -->
<g id="node10" class="node"><title>13</title>
<polygon fill="none" stroke="blue" points="306,-36 270,-36 270,-0 306,-0 306,-36"/>
<text text-anchor="middle" x="288" y="-14.3" font-family="Times,serif" font-size="14.00">13</text>
</g>
<!-- 14 -->
<g id="node11" class="node"><title>14</title>
<polygon fill="none" stroke="blue" points="360,-36 324,-36 324,-0 360,-0 360,-36"/>
<text text-anchor="middle" x="342" y="-14.3" font-family="Times,serif" font-size="14.00">14</text>
</g>
<!-- 0 -->
<g id="node12" class="node"><title>0</title>
<ellipse fill="none" stroke="black" cx="301" cy="-234" rx="18" ry="18"/>
<text text-anchor="middle" x="301" y="-230.3" font-family="Times,serif" font-size="14.00">0</text>
</g>
<!-- 1 -->
<g id="node13" class="node"><title>1</title>
<ellipse fill="none" stroke="black" cx="234" cy="-162" rx="18" ry="18"/>
<text text-anchor="middle" x="234" y="-158.3" font-family="Times,serif" font-size="14.00">1</text>
</g>
<!-- 0&#45;&gt;1 -->
<g id="edge1" class="edge"><title>0&#45;&gt;1</title>
<path fill="none" stroke="black" d="M289.022,-220.485C279.141,-210.163 264.929,-195.314 253.425,-183.294"/>
<polygon fill="black" stroke="black" points="255.771,-180.684 246.328,-175.88 250.714,-185.524 255.771,-180.684"/>
</g>
<!-- 2 -->
<g id="node14" class="node"><title>2</title>
<ellipse fill="none" stroke="black" cx="369" cy="-162" rx="18" ry="18"/>
<text text-anchor="middle" x="369" y="-158.3" font-family="Times,serif" font-size="14.00">2</text>
</g>
<!-- 0&#45;&gt;2 -->
<g id="edge2" class="edge"><title>0&#45;&gt;2</title>
<path fill="none" stroke="black" d="M313.157,-220.485C323.31,-210.034 337.97,-194.942 349.722,-182.845"/>
<polygon fill="black" stroke="black" points="352.491,-185.018 356.948,-175.406 347.47,-180.14 352.491,-185.018"/>
</g>
<!-- 3 -->
<g id="node15" class="node"><title>3</title>
<ellipse fill="none" stroke="black" cx="99" cy="-90" rx="18" ry="18"/>
<text text-anchor="middle" x="99" y="-86.3" font-family="Times,serif" font-size="14.00">3</text>
</g>
<!-- 1&#45;&gt;3 -->
<g id="edge3" class="edge"><title>1&#45;&gt;3</title>
<path fill="none" stroke="black" d="M218.25,-152.833C194.98,-140.767 151.205,-118.069 123.657,-103.785"/>
<polygon fill="black" stroke="black" points="125.139,-100.611 114.65,-99.1149 121.917,-106.825 125.139,-100.611"/>
</g>
<!-- 4 -->
<g id="node16" class="node"><title>4</title>
<ellipse fill="none" stroke="black" cx="234" cy="-90" rx="18" ry="18"/>
<text text-anchor="middle" x="234" y="-86.3" font-family="Times,serif" font-size="14.00">4</text>
</g>
<!-- 1&#45;&gt;4 -->
<g id="edge4" class="edge"><title>1&#45;&gt;4</title>
<path fill="none" stroke="black" d="M234,-143.697C234,-135.983 234,-126.712 234,-118.112"/>
<polygon fill="black" stroke="black" points="237.5,-118.104 234,-108.104 230.5,-118.104 237.5,-118.104"/>
</g>
<!-- 5 -->
<g id="node17" class="node"><title>5</title>
<ellipse fill="none" stroke="black" cx="342" cy="-90" rx="18" ry="18"/>
<text text-anchor="middle" x="342" y="-86.3" font-family="Times,serif" font-size="14.00">5</text>
</g>
<!-- 2&#45;&gt;5 -->
<g id="edge5" class="edge"><title>2&#45;&gt;5</title>
<path fill="none" stroke="black" d="M362.738,-144.765C359.5,-136.371 355.475,-125.934 351.834,-116.495"/>
<polygon fill="black" stroke="black" points="355.093,-115.218 348.228,-107.147 348.562,-117.737 355.093,-115.218"/>
</g>
<!-- 6 -->
<g id="node18" class="node"><title>6</title>
<ellipse fill="none" stroke="black" cx="396" cy="-90" rx="18" ry="18"/>
<text text-anchor="middle" x="396" y="-86.3" font-family="Times,serif" font-size="14.00">6</text>
</g>
<!-- 2&#45;&gt;6 -->
<g id="edge6" class="edge"><title>2&#45;&gt;6</title>
<path fill="none" stroke="black" d="M375.262,-144.765C378.5,-136.371 382.525,-125.934 386.166,-116.495"/>
<polygon fill="black" stroke="black" points="389.438,-117.737 389.772,-107.147 382.907,-115.218 389.438,-117.737"/>
</g>
<!-- 7 -->
<g id="node19" class="node"><title>7</title>
<ellipse fill="none" stroke="black" cx="504" cy="-90" rx="18" ry="18"/>
<text text-anchor="middle" x="504" y="-86.3" font-family="Times,serif" font-size="14.00">7</text>
</g>
<!-- 2&#45;&gt;7 -->
<g id="edge7" class="edge"><title>2&#45;&gt;7</title>
<path fill="none" stroke="black" d="M384.75,-152.833C408.02,-140.767 451.795,-118.069 479.343,-103.785"/>
<polygon fill="black" stroke="black" points="481.083,-106.825 488.35,-99.1149 477.861,-100.611 481.083,-106.825"/>
</g>
<!-- 3&#45;&gt;8 -->
<g id="edge8" class="edge"><title>3&#45;&gt;8</title>
<path fill="none" stroke="black" d="M85.6245,-77.4409C74.3559,-67.7026 57.9023,-53.4835 44.0465,-41.5093"/>
<polygon fill="black" stroke="black" points="46.1021,-38.6599 36.2474,-34.7694 41.525,-43.9562 46.1021,-38.6599"/>
</g>
<!-- 3&#45;&gt;9 -->
<g id="edge9" class="edge"><title>3&#45;&gt;9</title>
<path fill="none" stroke="black" d="M92.7378,-72.7646C89.626,-64.6971 85.7859,-54.7411 82.2593,-45.5981"/>
<polygon fill="black" stroke="black" points="85.4692,-44.1944 78.6049,-36.1239 78.9382,-46.7135 85.4692,-44.1944"/>
</g>
<!-- 3&#45;&gt;10 -->
<g id="edge10" class="edge"><title>3&#45;&gt;10</title>
<path fill="none" stroke="black" d="M105.262,-72.7646C108.374,-64.6971 112.214,-54.7411 115.741,-45.5981"/>
<polygon fill="black" stroke="black" points="119.062,-46.7135 119.395,-36.1239 112.531,-44.1944 119.062,-46.7135"/>
</g>
<!-- 4&#45;&gt;11 -->
<g id="edge11" class="edge"><title>4&#45;&gt;11</title>
<path fill="none" stroke="black" d="M223.331,-75.1703C216.492,-66.3043 207.413,-54.5354 199.333,-44.0613"/>
<polygon fill="black" stroke="black" points="202.008,-41.7991 193.129,-36.019 196.466,-46.0747 202.008,-41.7991"/>
</g>
<!-- 4&#45;&gt;12 -->
<g id="edge12" class="edge"><title>4&#45;&gt;12</title>
<path fill="none" stroke="black" d="M234,-71.6966C234,-63.9827 234,-54.7125 234,-46.1124"/>
<polygon fill="black" stroke="black" points="237.5,-46.1043 234,-36.1043 230.5,-46.1044 237.5,-46.1043"/>
</g>
<!-- 4&#45;&gt;13 -->
<g id="edge13" class="edge"><title>4&#45;&gt;13</title>
<path fill="none" stroke="black" d="M244.669,-75.1703C251.508,-66.3043 260.587,-54.5354 268.667,-44.0613"/>
<polygon fill="black" stroke="black" points="271.534,-46.0747 274.871,-36.019 265.992,-41.7991 271.534,-46.0747"/>
</g>
<!-- 5&#45;&gt;14 -->
<g id="edge14" class="edge"><title>5&#45;&gt;14</title>
<path fill="none" stroke="black" d="M342,-71.6966C342,-63.9827 342,-54.7125 342,-46.1124"/>
<polygon fill="black" stroke="black" points="345.5,-46.1043 342,-36.1043 338.5,-46.1044 345.5,-46.1043"/>
</g>
<!-- 6&#45;&gt;15 -->
<g id="edge15" class="edge"><title>6&#45;&gt;15</title>
<path fill="none" stroke="black" d="M396,-71.6966C396,-63.9827 396,-54.7125 396,-46.1124"/>
<polygon fill="black" stroke="black" points="399.5,-46.1043 396,-36.1043 392.5,-46.1044 399.5,-46.1043"/>
</g>
<!-- 6&#45;&gt;16 -->
<g id="edge16" class="edge"><title>6&#45;&gt;16</title>
<path fill="none" stroke="black" d="M406.669,-75.1703C413.508,-66.3043 422.587,-54.5354 430.667,-44.0613"/>
<polygon fill="black" stroke="black" points="433.534,-46.0747 436.871,-36.019 427.992,-41.7991 433.534,-46.0747"/>
</g>
<!-- 7&#45;&gt;17 -->
<g id="edge17" class="edge"><title>7&#45;&gt;17</title>
<path fill="none" stroke="black" d="M504,-71.6966C504,-63.9827 504,-54.7125 504,-46.1124"/>
<polygon fill="black" stroke="black" points="507.5,-46.1043 504,-36.1043 500.5,-46.1044 507.5,-46.1043"/>
</g>
<!-- 7&#45;&gt;18 -->
<g id="edge18" class="edge"><title>7&#45;&gt;18</title>
<path fill="none" stroke="black" d="M514.669,-75.1703C521.508,-66.3043 530.587,-54.5354 538.667,-44.0613"/>
<polygon fill="black" stroke="black" points="541.534,-46.0747 544.871,-36.019 535.992,-41.7991 541.534,-46.0747"/>
</g>
</g>
</svg>
